PathFileType	4	(X/Y/Z)	D:\Share\Shared_Data\Ergonomics\Sit To Stand Pertubation\S0\Perturbed STS.trc
DataRate	CameraRate	NumFrames	NumMarkers	Units	OrigDataRate	OrigDataStartFrame	OrigNumFrames	
100	100	14	18	m	100	8834	221
Frame#	Time	R_Heel			R_ASIS			R_Pelvis			V_Sacral			L_Pelvis			L_ASIS			Clavical			R_Acromium			L_Acromium			Sternum			Torso			R_Thigh_Med			R_Thigh_Lat			R_Thigh			R_Shank_Med			R_Shank_Lat			R_Shank			R_Toe			
		X1	Y1	Z1	X2	Y2	Z2	X3	Y3	Z3	X4	Y4	Z4	X5	Y5	Z5	X6	Y6	Z6	X7	Y7	Z7	X8	Y8	Z8	X9	Y9	Z9	X10	Y10	Z10	X11	Y11	Z11	X12	Y12	Z12	X13	Y13	Z13	X14	Y14	Z14	X15	Y15	Z15	X16	Y16	Z16	X17	Y17	Z17	X18	Y18	Z18	

8834	44.68	0.15793962	0.039353069	0.11990356	0.26720941	0.97858807	0.14708115	0.14835489	1.0129097	0.19199141	0.021449919	1.0311797	-0.034893192	0.16159714	0.99834607	-0.21676103	0.27302762	0.9606015	-0.16610876	0.37925629	1.3920292	-0.027234037	0.31719101	1.4820798	0.10596322	0.31406549	1.479012	-0.17888611	0.38846631	1.2959084	-0.043156136	0.37241678	1.3451337	-0.14932155	0.2988009	0.49510318	0.030895338	0.2930946	0.51567267	0.1605583	0.344819	0.65974573	0.097981567	0.25484935	0.10127704	0.072653259	0.19900122	0.08529641	0.16371071	0.24571722	0.31406003	0.17862466	0.38014468	0.054549282	0.10856047
8835	44.69	0.15801733	0.039424919	0.11985703	0.26998608	0.98020789	0.14718861	0.15065359	1.013654	0.19181836	0.024088169	1.0313389	-0.035211872	0.16455882	0.99913977	-0.21685568	0.27638309	0.96226782	-0.16618585	0.37813562	1.395166	-0.027411797	0.3150975	1.4842709	0.10617221	0.31224051	1.4813317	-0.17908534	0.38855753	1.2990042	-0.04319511	0.37194601	1.3480272	-0.14947366	0.29853577	0.49512546	0.030320875	0.29299457	0.51582672	0.15991396	0.34562912	0.65945789	0.09728997	0.25492415	0.10121011	0.072551117	0.19906485	0.08534745	0.16357162	0.24547232	0.31417255	0.17822447	0.38052261	0.054165028	0.10866187
8836	44.7	0.15813039	0.039526447	0.11979768	0.272742	0.98174536	0.14730974	0.15295572	1.0143456	0.19165871	0.026711905	1.0314528	-0.035502075	0.16748239	0.99989331	-0.21693196	0.27969608	0.96388605	-0.16626178	0.37701389	1.3981825	-0.02759548	0.31304941	1.4863313	0.10638625	0.31045016	1.4835392	-0.17927049	0.38864655	1.3019865	-0.043225834	0.37149445	1.350812	-0.14960463	0.29831473	0.49514081	0.029770773	0.2929325	0.51596942	0.15929013	0.34645569	0.65916113	0.096637512	0.25505614	0.10113157	0.072444748	0.19916832	0.085403526	0.16341167	0.24525797	0.31428836	0.17782828	0.38100461	0.053683575	0.10882105
8837	44.71	0.15828145	0.039660645	0.11972392	0.27547342	0.98320374	0.14743857	0.1552607	1.0149866	0.19151373	0.029316244	1.0315205	-0.03576107	0.17036375	1.0006053	-0.21698743	0.28294238	0.96544965	-0.16633693	0.37589948	1.4010741	-0.027779198	0.31104944	1.4882633	0.10660369	0.30869815	1.4856332	-0.17943831	0.38873288	1.3048539	-0.04324131	0.37105823	1.3534839	-0.14970805	0.29813336	0.49515027	0.029247595	0.29289807	0.51610101	0.15868704	0.34729861	0.65885461	0.096026688	0.25525124	0.10104169	0.072334908	0.19931172	0.085465912	0.16322833	0.24506117	0.31440924	0.17743436	0.38159067	0.053104958	0.10903725
8838	44.72	0.15846638	0.039825226	0.11963716	0.27818134	0.98458917	0.14756935	0.15756673	1.0155796	0.19138504	0.031896967	1.0315414	-0.035986958	0.17319919	1.0012742	-0.21702022	0.28610678	0.96695331	-0.16641318	0.37480634	1.4038369	-0.027955223	0.30909906	1.4900667	0.10682329	0.30698685	1.4876125	-0.17958551	0.38881732	1.3076045	-0.043236015	0.37063303	1.3560406	-0.1497796	0.2979838	0.4951564	0.028751297	0.29287851	0.51622272	0.1581049	0.34815884	0.65853918	0.095454353	0.25550407	0.10094332	0.072223503	0.19948729	0.085535202	0.16302373	0.24486726	0.31453604	0.17704224	0.38225958	0.052446911	0.10929713
8839	44.73	0.15867409	0.040012257	0.11954224	0.28086905	0.98590808	0.1476964	0.15987122	1.0161279	0.19127423	0.034449337	1.0315173	-0.036178375	0.1759826	1.0018986	-0.21703052	0.28918185	0.96839404	-0.1664937	0.37375113	1.4064689	-0.028114845	0.30719873	1.4917415	0.10704439	0.30531683	1.4894777	-0.17970947	0.38890106	1.3102368	-0.043206829	0.37021533	1.3584805	-0.14981813	0.29785489	0.49516278	0.028280035	0.29286151	0.51633679	0.1575448	0.34903687	0.65821771	0.094913673	0.25579759	0.10084187	0.072113213	0.19967947	0.085610909	0.16280441	0.24466122	0.31466837	0.17665524	0.38297015	0.051743404	0.109576
8840	44.74	0.15888902	0.040209141	0.11944662	0.28353326	0.98716254	0.14781387	0.16217174	1.0166349	0.19118164	0.036967533	1.0314529	-0.036334381	0.17870381	1.0024773	-0.21702133	0.29216449	0.96976917	-0.16658247	0.37274933	1.408969	-0.028249529	0.30534851	1.4932875	0.10726701	0.30368756	1.4912297	-0.17980856	0.38898486	1.3127498	-0.043153316	0.36980331	1.3608033	-0.14982524	0.29773358	0.49517245	0.027831726	0.29283725	0.51644537	0.157009	0.34992807	0.65789331	0.094397331	0.2561066	0.10074467	0.072007423	0.19986816	0.085691017	0.16258076	0.24442989	0.31480511	0.17628212	0.38367044	0.051038105	0.10984449
8841	44.75	0.1590954	0.040401379	0.11935944	0.28616046	0.98834735	0.14791568	0.16446632	1.0171037	0.19110593	0.039445004	1.0313541	-0.036454247	0.18135106	1.0030109	-0.21699753	0.29505371	0.97107697	-0.16668391	0.37181332	1.411339	-0.02835146	0.30354819	1.4947054	0.10749187	0.30209811	1.4928721	-0.17988235	0.38906949	1.3151433	-0.043076839	0.36939758	1.3630114	-0.14980405	0.29760745	0.49518683	0.027405788	0.29280118	0.51655035	0.15650072	0.35082123	0.65756726	0.093899605	0.25640366	0.10065927	0.071910698	0.20003441	0.085771873	0.16236598	0.24416542	0.31494495	0.17593611	0.38431134	0.050375187	0.11007706
8842	44.76	0.15928072	0.040576111	0.11929083	0.28873392	0.98945361	0.147996	0.16675385	1.0175367	0.19104434	0.041875401	1.0312289	-0.036537315	0.18391513	1.0035009	-0.21696422	0.29784967	0.97231555	-0.16680246	0.37095187	1.4135814	-0.028413345	0.30179779	1.4959979	0.10772038	0.30054807	1.4944082	-0.1799313	0.3891568	1.3174189	-0.04297953	0.36900113	1.3651068	-0.14975781	0.29746722	0.49520544	0.027004086	0.29275446	0.51665295	0.15602328	0.35170398	0.65724048	0.093416908	0.25666522	0.10059167	0.071829102	0.200166	0.085848923	0.16217458	0.2438692	0.3150867	0.1756322	0.38485739	0.049789944	0.110258
8843	44.77	0.15943756	0.040724796	0.11925055	0.29124652	0.99047699	0.14805154	0.16903387	1.0179357	0.19099341	0.044254398	1.0310859	-0.036583332	0.18639143	1.0039504	-0.2169258	0.30055246	0.97348254	-0.16694179	0.37016858	1.4156987	-0.028428595	0.30009744	1.4971697	0.10795447	0.29903726	1.4958422	-0.17995624	0.38924979	1.3195789	-0.042863739	0.36861847	1.3670935	-0.14968976	0.2973067	0.49522623	0.026630207	0.29270267	0.51675385	0.15557938	0.35256851	0.65691321	0.092947151	0.25687473	0.10054531	0.071769302	0.20025955	0.085917809	0.16201961	0.24355354	0.31522913	0.1753829	0.38529138	0.049302212	0.110383
8844	44.78	0.15956343	0.040843853	0.11924564	0.29370706	0.99142322	0.14808345	0.1713065	1.0183016	0.19094963	0.046580719	1.0309331	-0.036592869	0.18877913	1.0043616	-0.21688533	0.30316187	0.97457465	-0.16710378	0.3694617	1.4176953	-0.028392584	0.29844803	1.4982284	0.1081963	0.29756586	1.4971781	-0.17995792	0.38935254	1.3216273	-0.042731827	0.36825473	1.3689762	-0.14960286	0.29712143	0.49524643	0.026287626	0.29265314	0.51685376	0.15517006	0.35341147	0.65658606	0.092489052	0.25702377	0.10052087	0.071736588	0.20031862	0.085975182	0.16190996	0.24323946	0.31537036	0.17519431	0.38561313	0.048915386	0.11045738
8845	44.79	0.15965987	0.040933857	0.11927834	0.29613672	0.99230591	0.14809647	0.17357167	1.0186349	0.19091063	0.048854786	1.0307758	-0.036567097	0.19108012	1.0047365	-0.21684384	0.3056778	0.97558777	-0.1672879	0.36882407	1.4195756	-0.028304371	0.29685086	1.4991831	0.10844773	0.29613495	1.4984197	-0.17993721	0.3894686	1.3235688	-0.042586029	0.36791541	1.3707611	-0.14949998	0.29690707	0.49526334	0.025978195	0.29261237	0.51695349	0.15479472	0.3542316	0.65625873	0.0920411	0.25711151	0.10051666	0.071733055	0.2003502	0.08601947	0.16184834	0.24295071	0.31550745	0.17506474	0.38583459	0.048620026	0.11049229
8846	44.8	0.15973087	0.040998402	0.11934566	0.2985603	0.99314056	0.14809666	0.17582761	1.0189363	0.19087628	0.05107719	1.0306176	-0.036507294	0.19329807	1.0050751	-0.21680028	0.30810147	0.97651831	-0.16749062	0.36824438	1.4213456	-0.028167536	0.29530737	1.5000438	0.10870968	0.29474683	1.4995713	-0.17989572	0.38959958	1.3254087	-0.042428364	0.36760577	1.372455	-0.14938361	0.29665878	0.49527457	0.025701986	0.29258469	0.51705389	0.15445198	0.35502859	0.65593079	0.091600815	0.25714346	0.10052933	0.071757065	0.20036183	0.086050995	0.16183122	0.24270676	0.31563663	0.17498584	0.38597488	0.048399223	0.11050058
8847	44.81	0.15978163	0.041042706	0.11944026	0.30099414	0.9939389	0.14808974	0.1780699	1.0192079	0.19084937	0.053248592	1.030459	-0.036414978	0.19543819	1.0053774	-0.21675177	0.31043558	0.97736365	-0.16770531	0.36770987	1.4230115	-0.027989407	0.29381824	1.500822	0.10898172	0.2934043	1.5006392	-0.17983545	0.38974478	1.3271532	-0.042260639	0.36732971	1.3740652	-0.14925563	0.29637204	0.49527954	0.025457991	0.29257123	0.51715564	0.15414029	0.35580298	0.6556026	0.091164772	0.25712958	0.1005546	0.071803978	0.20035979	0.086071548	0.16185019	0.24251704	0.31575473	0.17494582	0.38605521	0.048233524	0.11049406
